<svg width="143" height="122" viewBox="0 0 143 122" fill="none" xmlns="http://www.w3.org/2000/svg">
<g opacity="0.5">
<path d="M34.3606 103V95.524H37.0366V94.6H30.6406V95.524H33.3286V103H34.3606ZM43.7318 103L40.3838 94.6H39.4598L36.1118 103H37.1798L38.0558 100.732H41.7998L42.6638 103H43.7318ZM39.9278 95.86L41.4398 99.82H38.4038L39.9278 95.86ZM45.7054 103V99.568H47.8414C49.5094 99.568 50.5174 98.56 50.5174 97.084C50.5174 95.608 49.5094 94.6 47.8414 94.6H44.6854V103H45.7054ZM45.7054 95.512H47.8414C49.0294 95.512 49.4734 96.256 49.4734 97.084C49.4734 97.912 49.0294 98.656 47.8414 98.656H45.7054V95.512ZM61.392 103L58.044 94.6H57.12L53.772 103H54.84L55.716 100.732H59.46L60.324 103H61.392ZM57.588 95.86L59.1 99.82H56.064L57.588 95.86ZM63.3655 103V96.184L67.6855 103H68.8615V94.6H67.8415V101.44L63.5095 94.6H62.3455V103H63.3655ZM73.1144 103C75.4664 103 77.3024 101.476 77.3024 98.8C77.3024 96.124 75.4664 94.6 73.1144 94.6H70.6424V103H73.1144ZM71.6624 95.524H73.0904C74.7224 95.524 76.2344 96.484 76.2344 98.8C76.2344 101.116 74.7224 102.076 73.0904 102.076H71.6624V95.524ZM87.0246 98.2H82.5726V94.6H81.5526V103H82.5726V99.124H87.0246V103H88.0446V94.6H87.0246V98.2ZM93.558 103.096C95.922 103.096 97.686 101.272 97.686 98.8C97.686 96.328 95.922 94.504 93.558 94.504C91.194 94.504 89.442 96.328 89.442 98.8C89.442 101.272 91.194 103.096 93.558 103.096ZM93.558 102.172C91.794 102.172 90.498 100.732 90.498 98.8C90.498 96.868 91.794 95.428 93.558 95.428C95.322 95.428 96.63 96.868 96.63 98.8C96.63 100.732 95.322 102.172 93.558 102.172ZM104.28 103V102.076H100.08V94.6H99.0604V103H104.28ZM107.814 103C110.166 103 112.002 101.476 112.002 98.8C112.002 96.124 110.166 94.6 107.814 94.6H105.342V103H107.814ZM106.362 95.524H107.79C109.422 95.524 110.934 96.484 110.934 98.8C110.934 101.116 109.422 102.076 107.79 102.076H106.362V95.524ZM4.33129 119V111.524H7.00729V110.6H0.611285V111.524H3.29929V119H4.33129ZM11.181 119.096C13.545 119.096 15.309 117.272 15.309 114.8C15.309 112.328 13.545 110.504 11.181 110.504C8.81704 110.504 7.06504 112.328 7.06504 114.8C7.06504 117.272 8.81704 119.096 11.181 119.096ZM11.181 118.172C9.41704 118.172 8.12104 116.732 8.12104 114.8C8.12104 112.868 9.41704 111.428 11.181 111.428C12.945 111.428 14.253 112.868 14.253 114.8C14.253 116.732 12.945 118.172 11.181 118.172ZM20.5628 119V115.568H22.6988C24.3668 115.568 25.3748 114.56 25.3748 113.084C25.3748 111.608 24.3668 110.6 22.6988 110.6H19.5428V119H20.5628ZM20.5628 111.512H22.6988C23.8868 111.512 24.3308 112.256 24.3308 113.084C24.3308 113.912 23.8868 114.656 22.6988 114.656H20.5628V111.512ZM31.11 115.016C31.902 114.644 32.43 113.984 32.43 113.06C32.43 111.596 31.41 110.6 29.754 110.6H26.574V119H27.594V115.58H29.874C30.666 115.58 31.194 116.156 31.242 116.972L31.386 119H32.37L32.226 116.912C32.166 116.06 31.77 115.376 31.11 115.016ZM29.754 111.512C30.93 111.512 31.374 112.232 31.374 113.06C31.374 113.888 30.93 114.656 29.754 114.656H27.594V111.512H29.754ZM37.724 119.096C40.088 119.096 41.852 117.272 41.852 114.8C41.852 112.328 40.088 110.504 37.724 110.504C35.36 110.504 33.608 112.328 33.608 114.8C33.608 117.272 35.36 119.096 37.724 119.096ZM37.724 118.172C35.96 118.172 34.664 116.732 34.664 114.8C34.664 112.868 35.96 111.428 37.724 111.428C39.488 111.428 40.796 112.868 40.796 114.8C40.796 116.732 39.488 118.172 37.724 118.172ZM46.8864 119.096C48.7464 119.096 50.2464 117.956 50.4264 116.384H49.3704C49.2504 117.416 48.1944 118.172 46.8864 118.172C45.1344 118.172 43.8984 116.984 43.8984 114.8C43.8984 112.616 45.1344 111.428 46.8864 111.428C48.1704 111.428 49.2144 112.184 49.3584 113.216H50.4384C50.2104 111.644 48.7104 110.504 46.8864 110.504C44.7984 110.504 42.8424 111.896 42.8424 114.8C42.8424 117.692 44.7864 119.096 46.8864 119.096ZM57.1105 119V118.076H52.7425V115.124H56.1865V114.2H52.7425V111.524H56.9785V110.6H51.7225V119H57.1105ZM63.9073 119V118.076H59.5393V115.124H62.9833V114.2H59.5393V111.524H63.7753V110.6H58.5193V119H63.9073ZM67.7882 119C70.1402 119 71.9762 117.476 71.9762 114.8C71.9762 112.124 70.1402 110.6 67.7882 110.6H65.3162V119H67.7882ZM66.3362 111.524H67.7642C69.3962 111.524 70.9082 112.484 70.9082 114.8C70.9082 117.116 69.3962 118.076 67.7642 118.076H66.3362V111.524ZM79.2024 119V111.524H81.8784V110.6H75.4824V111.524H78.1704V119H79.2024ZM86.0521 119.096C88.4161 119.096 90.1801 117.272 90.1801 114.8C90.1801 112.328 88.4161 110.504 86.0521 110.504C83.6881 110.504 81.9361 112.328 81.9361 114.8C81.9361 117.272 83.6881 119.096 86.0521 119.096ZM86.0521 118.172C84.2881 118.172 82.9921 116.732 82.9921 114.8C82.9921 112.868 84.2881 111.428 86.0521 111.428C87.8161 111.428 89.1241 112.868 89.1241 114.8C89.1241 116.732 87.8161 118.172 86.0521 118.172ZM97.1379 119.096C98.8899 119.096 100.21 118.232 100.21 116.708C100.21 113.552 95.2659 114.884 95.2659 112.736C95.2659 111.932 95.9379 111.428 97.0779 111.428C98.2059 111.428 98.9379 112.04 99.0339 112.988H100.042C99.9219 111.476 98.7579 110.504 97.0779 110.504C95.3979 110.504 94.2339 111.404 94.2339 112.736C94.2339 115.736 99.1419 114.548 99.1419 116.708C99.1419 117.728 98.3019 118.172 97.1379 118.172C95.8299 118.172 95.0619 117.416 94.9539 116.252H93.9459C94.0539 117.968 95.2539 119.096 97.1379 119.096ZM106.927 119V118.076H102.559V115.124H106.003V114.2H102.559V111.524H106.795V110.6H101.539V119H106.927ZM111.656 119.096C113.516 119.096 115.016 117.956 115.196 116.384H114.14C114.02 117.416 112.964 118.172 111.656 118.172C109.904 118.172 108.668 116.984 108.668 114.8C108.668 112.616 109.904 111.428 111.656 111.428C112.94 111.428 113.984 112.184 114.128 113.216H115.208C114.98 111.644 113.48 110.504 111.656 110.504C109.568 110.504 107.612 111.896 107.612 114.8C107.612 117.692 109.556 119.096 111.656 119.096ZM119.421 119V111.524H122.097V110.6H115.701V111.524H118.389V119H119.421ZM124.11 119V110.6H123.09V119H124.11ZM129.622 119.096C131.986 119.096 133.75 117.272 133.75 114.8C133.75 112.328 131.986 110.504 129.622 110.504C127.258 110.504 125.506 112.328 125.506 114.8C125.506 117.272 127.258 119.096 129.622 119.096ZM129.622 118.172C127.858 118.172 126.562 116.732 126.562 114.8C126.562 112.868 127.858 111.428 129.622 111.428C131.386 111.428 132.694 112.868 132.694 114.8C132.694 116.732 131.386 118.172 129.622 118.172ZM136.145 119V112.184L140.465 119H141.641V110.6H140.621V117.44L136.289 110.6H135.125V119H136.145Z" fill="#1A1B1C"/>
<path d="M74.0005 40L71.0005 37L68.0005 40L71.0005 43L74.0005 40Z" fill="#1A1B1C"/>
<g opacity="0.3">
<rect x="36.4146" y="40" width="48.9121" height="48.9121" transform="rotate(-45 36.4146 40)" stroke="#1A1B1C"/>
<rect x="31.7076" y="40" width="55.5685" height="55.5685" transform="rotate(-45 31.7076 40)" stroke="#1A1B1C"/>
<path d="M90.9145 20.3377L98.0843 13.1678M90.9145 60.1056L98.3517 67.5428M51.1465 60.1056L43.4419 67.8102M51.1465 20.3377L43.7093 12.9004" stroke="#1A1B1C"/>
</g>
</g>
</svg>
